<?xml version="1.0" encoding="UTF-8"?>
<!DOCTYPE svg PUBLIC "-//W3C//DTD SVG 1.1//EN" "http://www.w3.org/Graphics/SVG/1.1/DTD/svg11.dtd">
<svg xmlns="http://www.w3.org/2000/svg" version="1.1" width="512px" height="512px" style="shape-rendering:geometricPrecision; text-rendering:geometricPrecision; image-rendering:optimizeQuality; fill-rule:evenodd; clip-rule:evenodd" xmlns:xlink="http://www.w3.org/1999/xlink">
<g><path style="opacity:1" fill="#a09496" d="M -0.5,-0.5 C 170.167,-0.5 340.833,-0.5 511.5,-0.5C 511.5,3.83333 511.5,8.16667 511.5,12.5C 504.709,11.3974 498.042,9.89737 491.5,8C 477.167,7.66667 462.833,7.33333 448.5,7C 447.5,6 446.5,5 445.5,4C 410.167,3.66667 374.833,3.33333 339.5,3C 339,2.5 338.5,2 338,1.5C 326.91,2.32182 315.743,2.82182 304.5,3C 303.5,3.33333 302.5,3.66667 301.5,4C 302.938,4.21893 304.271,4.71893 305.5,5.5C 305.291,6.08605 304.957,6.58605 304.5,7C 288.5,7.66667 272.5,7.66667 256.5,7C 266.107,5.77511 275.774,5.10844 285.5,5C 284.892,4.13008 284.059,3.63008 283,3.5C 256.207,4.94716 229.374,5.7805 202.5,6C 201.692,6.30762 201.025,6.80762 200.5,7.5C 216.156,8.33288 231.823,8.83288 247.5,9C 245.351,9.57885 243.185,10.0788 241,10.5C 236.358,9.90671 231.692,9.57337 227,9.5C 213.113,10.0514 199.28,11.0514 185.5,12.5C 181.5,12.3333 177.5,12.1667 173.5,12C 177.985,10.7258 182.652,10.0591 187.5,10C 176.31,8.79193 164.977,8.79193 153.5,10C 158.281,10.6988 158.447,11.1988 154,11.5C 132.849,10.3725 111.682,10.2059 90.5,11C 72.8857,12.2783 55.219,12.945 37.5,13C 36.6919,13.3076 36.0253,13.8076 35.5,14.5C 46.4849,15.3324 57.4849,15.8324 68.5,16C 52.6175,16.2235 36.7842,17.0569 21,18.5C 16.8333,18.3333 12.6667,18.1667 8.5,18C 13.7848,16.974 19.1181,16.3073 24.5,16C 16.1733,15.5003 7.83999,15.3336 -0.5,15.5C -0.5,10.1667 -0.5,4.83333 -0.5,-0.5 Z"/></g>
<g><path style="opacity:1" fill="#a59697" d="M 511.5,12.5 C 511.5,15.5 511.5,18.5 511.5,21.5C 503.492,21.8988 495.492,22.0655 487.5,22C 490.167,21.3333 490.167,20.6667 487.5,20C 480.497,19.2555 473.497,18.9222 466.5,19C 467.672,19.4186 468.672,20.0853 469.5,21C 458.836,21.0671 448.169,20.7337 437.5,20C 436.28,18.3697 434.28,17.3697 431.5,17C 393.126,14.7948 354.793,15.1282 316.5,18C 320.5,18.6667 320.5,19.3333 316.5,20C 305.496,20.7147 294.496,21.048 283.5,21C 284.672,20.5814 285.672,19.9147 286.5,19C 270.5,18.3333 254.5,18.3333 238.5,19C 235.768,19.413 233.101,20.0797 230.5,21C 205.833,21.3333 181.167,21.6667 156.5,22C 148.167,23 139.833,24 131.5,25C 106.833,25.3333 82.1667,25.6667 57.5,26C 54.6229,27.1268 51.6229,27.7935 48.5,28C 32.1423,28.2263 15.809,28.7263 -0.5,29.5C -0.5,24.8333 -0.5,20.1667 -0.5,15.5C 7.83999,15.3336 16.1733,15.5003 24.5,16C 19.1181,16.3073 13.7848,16.974 8.5,18C 12.6667,18.1667 16.8333,18.3333 21,18.5C 36.7842,17.0569 52.6175,16.2235 68.5,16C 57.4849,15.8324 46.4849,15.3324 35.5,14.5C 36.0253,13.8076 36.6919,13.3076 37.5,13C 55.219,12.945 72.8857,12.2783 90.5,11C 111.682,10.2059 132.849,10.3725 154,11.5C 158.447,11.1988 158.281,10.6988 153.5,10C 164.977,8.79193 176.31,8.79193 187.5,10C 182.652,10.0591 177.985,10.7258 173.5,12C 177.5,12.1667 181.5,12.3333 185.5,12.5C 199.28,11.0514 213.113,10.0514 227,9.5C 231.692,9.57337 236.358,9.90671 241,10.5C 243.185,10.0788 245.351,9.57885 247.5,9C 231.823,8.83288 216.156,8.33288 200.5,7.5C 201.025,6.80762 201.692,6.30762 202.5,6C 229.374,5.7805 256.207,4.94716 283,3.5C 284.059,3.63008 284.892,4.13008 285.5,5C 275.774,5.10844 266.107,5.77511 256.5,7C 272.5,7.66667 288.5,7.66667 304.5,7C 304.957,6.58605 305.291,6.08605 305.5,5.5C 304.271,4.71893 302.938,4.21893 301.5,4C 302.5,3.66667 303.5,3.33333 304.5,3C 315.743,2.82182 326.91,2.32182 338,1.5C 338.5,2 339,2.5 339.5,3C 374.833,3.33333 410.167,3.66667 445.5,4C 446.5,5 447.5,6 448.5,7C 462.833,7.33333 477.167,7.66667 491.5,8C 498.042,9.89737 504.709,11.3974 511.5,12.5 Z"/></g>
<g><path style="opacity:1" fill="#ab9998" d="M 511.5,21.5 C 511.5,26.1667 511.5,30.8333 511.5,35.5C 492.139,34.1998 472.806,32.6998 453.5,31C 402.5,30.3333 351.5,30.3333 300.5,31C 295.054,31.1011 289.721,31.7677 284.5,33C 257.5,33.3333 230.5,33.6667 203.5,34C 201.999,35.2515 200.332,36.2515 198.5,37C 171.5,37.3333 144.5,37.6667 117.5,38C 114.899,38.9203 112.232,39.587 109.5,40C 85.8333,40.3333 62.1667,40.6667 38.5,41C 35.4025,42.6101 32.0692,43.6101 28.5,44C 18.8391,44.4998 9.17241,44.6665 -0.5,44.5C -0.5,39.5 -0.5,34.5 -0.5,29.5C 15.809,28.7263 32.1423,28.2263 48.5,28C 51.6229,27.7935 54.6229,27.1268 57.5,26C 82.1667,25.6667 106.833,25.3333 131.5,25C 139.833,24 148.167,23 156.5,22C 181.167,21.6667 205.833,21.3333 230.5,21C 233.101,20.0797 235.768,19.413 238.5,19C 254.5,18.3333 270.5,18.3333 286.5,19C 285.672,19.9147 284.672,20.5814 283.5,21C 294.496,21.048 305.496,20.7147 316.5,20C 320.5,19.3333 320.5,18.6667 316.5,18C 354.793,15.1282 393.126,14.7948 431.5,17C 434.28,17.3697 436.28,18.3697 437.5,20C 448.169,20.7337 458.836,21.0671 469.5,21C 468.672,20.0853 467.672,19.4186 466.5,19C 473.497,18.9222 480.497,19.2555 487.5,20C 490.167,20.6667 490.167,21.3333 487.5,22C 495.492,22.0655 503.492,21.8988 511.5,21.5 Z"/></g>
<g><path style="opacity:1" fill="#af9b98" d="M 511.5,35.5 C 511.5,38.5 511.5,41.5 511.5,44.5C 498.187,43.7624 484.854,43.2624 471.5,43C 469.616,42.7837 467.949,42.117 466.5,41C 434.162,40.8332 401.828,40.3332 369.5,39.5C 368.687,38.1861 367.687,37.0195 366.5,36C 354.5,35.8333 342.5,35.6667 330.5,35.5C 307.09,35.315 283.757,36.1483 260.5,38C 259.692,38.3076 259.025,38.8076 258.5,39.5C 250.855,40.3315 243.188,40.8315 235.5,41C 233.715,42.1628 231.715,42.8295 229.5,43C 192.165,43.5574 154.831,44.2241 117.5,45C 111.618,48.3305 105.285,49.3305 98.5,48C 91.9021,43.4107 85.2354,43.4107 78.5,48C 52.1729,48.882 25.8396,49.382 -0.5,49.5C -0.5,47.8333 -0.5,46.1667 -0.5,44.5C 9.17241,44.6665 18.8391,44.4998 28.5,44C 32.0692,43.6101 35.4025,42.6101 38.5,41C 62.1667,40.6667 85.8333,40.3333 109.5,40C 112.232,39.587 114.899,38.9203 117.5,38C 144.5,37.6667 171.5,37.3333 198.5,37C 200.332,36.2515 201.999,35.2515 203.5,34C 230.5,33.6667 257.5,33.3333 284.5,33C 289.721,31.7677 295.054,31.1011 300.5,31C 351.5,30.3333 402.5,30.3333 453.5,31C 472.806,32.6998 492.139,34.1998 511.5,35.5 Z"/></g>
<g><path style="opacity:1" fill="#b29d98" d="M 511.5,44.5 C 511.5,46.8333 511.5,49.1667 511.5,51.5C 502.592,52.0784 493.926,50.9117 485.5,48C 455.707,48.294 426.04,47.1273 396.5,44.5C 388.839,45.6865 381.172,45.6865 373.5,44.5C 366.878,44.3253 360.545,45.492 354.5,48C 305.412,48.6731 256.412,50.0064 207.5,52C 205.913,52.8624 204.246,53.5291 202.5,54C 195.167,54.3333 187.833,54.6667 180.5,55C 128.896,56.7695 77.229,57.7695 25.5,58C 24.3279,58.4186 23.3279,59.0853 22.5,60C 14.8406,60.4997 7.1739,60.6664 -0.5,60.5C -0.5,56.8333 -0.5,53.1667 -0.5,49.5C 25.8396,49.382 52.1729,48.882 78.5,48C 85.2354,43.4107 91.9021,43.4107 98.5,48C 105.285,49.3305 111.618,48.3305 117.5,45C 154.831,44.2241 192.165,43.5574 229.5,43C 231.715,42.8295 233.715,42.1628 235.5,41C 243.188,40.8315 250.855,40.3315 258.5,39.5C 259.025,38.8076 259.692,38.3076 260.5,38C 283.757,36.1483 307.09,35.315 330.5,35.5C 342.5,35.6667 354.5,35.8333 366.5,36C 367.687,37.0195 368.687,38.1861 369.5,39.5C 401.828,40.3332 434.162,40.8332 466.5,41C 467.949,42.117 469.616,42.7837 471.5,43C 484.854,43.2624 498.187,43.7624 511.5,44.5 Z"/></g>
<g><path style="opacity:1" fill="#b89f98" d="M 511.5,51.5 C 511.5,57.1667 511.5,62.8333 511.5,68.5C 449.883,66.473 388.217,65.973 326.5,67C 322.23,68.0754 317.897,68.5754 313.5,68.5C 301.268,66.0877 288.935,64.2543 276.5,63C 254.888,61.3006 233.554,62.9673 212.5,68C 205.896,70.1504 199.229,71.9838 192.5,73.5C 179.605,74.8818 166.605,76.0485 153.5,77C 127.833,77.3333 102.167,77.6667 76.5,78C 75.3279,78.4186 74.3279,79.0853 73.5,80C 50.1667,80.3333 26.8333,80.6667 3.5,81C 2.0993,81.4101 0.765972,81.9101 -0.5,82.5C -0.5,75.1667 -0.5,67.8333 -0.5,60.5C 7.1739,60.6664 14.8406,60.4997 22.5,60C 23.3279,59.0853 24.3279,58.4186 25.5,58C 77.229,57.7695 128.896,56.7695 180.5,55C 187.833,54.6667 195.167,54.3333 202.5,54C 204.246,53.5291 205.913,52.8624 207.5,52C 256.412,50.0064 305.412,48.6731 354.5,48C 360.545,45.492 366.878,44.3253 373.5,44.5C 381.172,45.6865 388.839,45.6865 396.5,44.5C 426.04,47.1273 455.707,48.294 485.5,48C 493.926,50.9117 502.592,52.0784 511.5,51.5 Z"/></g>
<g><path style="opacity:1" fill="#fdfbfa" d="M 313.5,68.5 C 326.058,73.7702 338.725,79.1035 351.5,84.5C 361.769,90.3071 371.769,96.6405 381.5,103.5C 391.16,111.827 400.494,120.494 409.5,129.5C 416.422,138.36 423.089,147.36 429.5,156.5C 431.54,160.58 433.54,164.58 435.5,168.5C 437.501,172.176 439.501,175.842 441.5,179.5C 442.98,185.109 444.98,190.443 447.5,195.5C 448.798,201.709 450.464,207.709 452.5,213.5C 453.759,222.978 455.092,232.312 456.5,241.5C 456.5,247.833 456.5,254.167 456.5,260.5C 456.5,263.5 456.5,266.5 456.5,269.5C 455.263,274.96 454.596,280.627 454.5,286.5C 452.563,295.489 450.229,304.489 447.5,313.5C 446.167,317.833 444.833,322.167 443.5,326.5C 441.315,332.034 438.649,337.367 435.5,342.5C 432.17,348.492 428.837,354.492 425.5,360.5C 420.865,366.81 416.198,373.143 411.5,379.5C 406.601,384.309 401.935,389.309 397.5,394.5C 394.236,396.094 391.569,398.427 389.5,401.5C 384.431,404.695 379.765,408.362 375.5,412.5C 370.159,415.836 364.825,419.17 359.5,422.5C 354.128,425.186 348.795,427.853 343.5,430.5C 339.261,431.796 335.261,433.462 331.5,435.5C 327.455,436.834 323.455,438.167 319.5,439.5C 317.5,440.167 315.5,440.833 313.5,441.5C 304.061,444.32 294.394,445.987 284.5,446.5C 268.5,447.833 252.5,447.833 236.5,446.5C 234.167,446.5 231.833,446.5 229.5,446.5C 225.108,445.777 220.774,444.777 216.5,443.5C 214.485,442.076 212.152,441.41 209.5,441.5C 207.898,439.926 205.898,439.259 203.5,439.5C 202.167,439.5 200.833,439.5 199.5,439.5C 199.5,439.167 199.5,438.833 199.5,438.5C 198.07,437.463 196.403,436.796 194.5,436.5C 191.52,435.734 188.52,434.901 185.5,434C 180.748,431.057 175.748,428.557 170.5,426.5C 165.167,423.5 159.833,420.5 154.5,417.5C 151.423,415.613 148.423,413.446 145.5,411C 144.207,410.51 142.873,410.343 141.5,410.5C 135.64,410.717 129.973,411.383 124.5,412.5C 121.167,412.833 117.833,413.167 114.5,413.5C 107.289,413.458 100.289,414.125 93.5,415.5C 83.9324,415.915 74.4324,416.915 65,418.5C 60.3107,418.32 57.1441,415.986 55.5,411.5C 56.0349,405.407 58.0349,399.74 61.5,394.5C 64.4176,389.667 67.0843,384.667 69.5,379.5C 73.4041,373.366 77.0708,367.032 80.5,360.5C 83.9092,355.976 86.5759,350.976 88.5,345.5C 87.6743,342.515 86.341,339.849 84.5,337.5C 83.7176,333.937 82.3843,330.603 80.5,327.5C 79.0689,322.989 77.4022,318.655 75.5,314.5C 72.8806,307.358 70.8806,300.024 69.5,292.5C 69.0371,289.518 68.7038,286.518 68.5,283.5C 67.479,269.184 66.8123,254.851 66.5,240.5C 66.5,239.5 66.5,238.5 66.5,237.5C 66.9272,233.176 67.2605,228.842 67.5,224.5C 69.805,217.091 71.4717,209.424 72.5,201.5C 73.7065,198.773 75.2065,196.106 77,193.5C 77.49,192.207 77.6567,190.873 77.5,189.5C 80.3009,182.436 83.3009,175.436 86.5,168.5C 90.7495,161.671 94.7495,154.671 98.5,147.5C 99.9744,146.564 100.974,145.23 101.5,143.5C 108.729,133.931 116.729,124.931 125.5,116.5C 134.276,108.048 143.61,100.381 153.5,93.5C 166.285,86.0432 179.285,79.3765 192.5,73.5C 199.229,71.9838 205.896,70.1504 212.5,68C 233.554,62.9673 254.888,61.3006 276.5,63C 288.935,64.2543 301.268,66.0877 313.5,68.5 Z"/></g>
<g><path style="opacity:1" fill="#bea196" d="M 511.5,68.5 C 511.5,73.1667 511.5,77.8333 511.5,82.5C 457.823,81.8376 404.49,82.5043 351.5,84.5C 338.725,79.1035 326.058,73.7702 313.5,68.5C 317.897,68.5754 322.23,68.0754 326.5,67C 388.217,65.973 449.883,66.473 511.5,68.5 Z"/></g>
<g><path style="opacity:1" fill="#bea297" d="M 192.5,73.5 C 179.285,79.3765 166.285,86.0432 153.5,93.5C 102.219,94.7144 50.8857,95.7144 -0.5,96.5C -0.5,91.8333 -0.5,87.1667 -0.5,82.5C 0.765972,81.9101 2.0993,81.4101 3.5,81C 26.8333,80.6667 50.1667,80.3333 73.5,80C 74.3279,79.0853 75.3279,78.4186 76.5,78C 102.167,77.6667 127.833,77.3333 153.5,77C 166.605,76.0485 179.605,74.8818 192.5,73.5 Z"/></g>
<g><path style="opacity:1" fill="#e4d8d3" d="M 244.5,78.5 C 256.326,77.3403 268.326,77.1737 280.5,78C 284.28,78.918 287.946,79.7513 291.5,80.5C 275.921,78.7305 260.254,78.0638 244.5,78.5 Z"/></g>
<g><path style="opacity:1" fill="#c4a494" d="M 511.5,82.5 C 511.5,89.1667 511.5,95.8333 511.5,102.5C 501.842,102.963 492.175,103.296 482.5,103.5C 461.881,102.03 441.214,101.363 420.5,101.5C 407.149,101.501 394.149,102.167 381.5,103.5C 371.769,96.6405 361.769,90.3071 351.5,84.5C 404.49,82.5043 457.823,81.8376 511.5,82.5 Z"/></g>
<g><path style="opacity:1" fill="#c2a398" d="M 244.5,78.5 C 260.254,78.0638 275.921,78.7305 291.5,80.5C 301.457,82.4188 311.123,85.0854 320.5,88.5C 296.498,88.3334 272.498,88.5 248.5,89C 246.787,90.3782 245.453,92.0448 244.5,94C 224.16,94.3654 203.827,94.8654 183.5,95.5C 186.611,93.4409 189.944,91.6076 193.5,90C 210.297,84.6771 227.297,80.8438 244.5,78.5 Z"/></g>
<g><path style="opacity:1" fill="#c5a494" d="M 320.5,88.5 C 325.239,89.6987 329.905,91.1987 334.5,93C 339.855,95.3405 344.855,98.1738 349.5,101.5C 347.364,102.403 345.364,103.569 343.5,105C 333.5,105.333 323.5,105.667 313.5,106C 311.392,106.36 309.392,107.027 307.5,108C 276.828,108.449 246.162,109.115 215.5,110C 214.167,110.667 212.833,111.333 211.5,112C 201.251,112.054 191.084,112.887 181,114.5C 179.833,114.333 178.667,114.167 177.5,114C 178.687,112.981 179.687,111.814 180.5,110.5C 173.197,109.503 165.863,109.169 158.5,109.5C 165.833,103.194 174.166,98.5278 183.5,95.5C 203.827,94.8654 224.16,94.3654 244.5,94C 245.453,92.0448 246.787,90.3782 248.5,89C 272.498,88.5 296.498,88.3334 320.5,88.5 Z"/></g>
<g><path style="opacity:1" fill="#c3a396" d="M 153.5,93.5 C 143.61,100.381 134.276,108.048 125.5,116.5C 123.429,115.191 120.929,114.525 118,114.5C 97.9101,116.193 77.7434,117.026 57.5,117C 54.2536,120.16 50.9203,120.16 47.5,117C 35.8333,116.333 24.1667,116.333 12.5,117C 8.49012,119.173 4.15679,120.006 -0.5,119.5C -0.5,111.833 -0.5,104.167 -0.5,96.5C 50.8857,95.7144 102.219,94.7144 153.5,93.5 Z"/></g>
<g><path style="opacity:1" fill="#cba591" d="M 349.5,101.5 C 363.249,108.906 375.915,117.906 387.5,128.5C 376.2,127.399 364.867,127.233 353.5,128C 352.122,129.713 350.455,131.047 348.5,132C 317.514,133.173 286.514,133.84 255.5,134C 250.896,135.061 246.229,135.727 241.5,136C 240.328,136.419 239.328,137.085 238.5,138C 231.437,138.16 224.437,138.827 217.5,140C 186.161,140.414 154.828,141.081 123.5,142C 122.756,143.039 121.756,143.539 120.5,143.5C 131.192,129.843 143.858,118.51 158.5,109.5C 165.863,109.169 173.197,109.503 180.5,110.5C 179.687,111.814 178.687,112.981 177.5,114C 178.667,114.167 179.833,114.333 181,114.5C 191.084,112.887 201.251,112.054 211.5,112C 212.833,111.333 214.167,110.667 215.5,110C 246.162,109.115 276.828,108.449 307.5,108C 309.392,107.027 311.392,106.36 313.5,106C 323.5,105.667 333.5,105.333 343.5,105C 345.364,103.569 347.364,102.403 349.5,101.5 Z"/></g>
<g><path style="opacity:1" fill="#cba591" d="M 511.5,102.5 C 511.5,110.833 511.5,119.167 511.5,127.5C 477.15,126.84 443.15,127.507 409.5,129.5C 400.494,120.494 391.16,111.827 381.5,103.5C 394.149,102.167 407.149,101.501 420.5,101.5C 441.214,101.363 461.881,102.03 482.5,103.5C 492.175,103.296 501.842,102.963 511.5,102.5 Z"/></g>
<g><path style="opacity:1" fill="#cba593" d="M 125.5,116.5 C 116.729,124.931 108.729,133.931 101.5,143.5C 98.6946,142.681 95.6946,142.181 92.5,142C 63.8216,141.273 35.155,141.607 6.5,143C 4.14011,144.18 1.80678,145.347 -0.5,146.5C -0.5,137.5 -0.5,128.5 -0.5,119.5C 4.15679,120.006 8.49012,119.173 12.5,117C 24.1667,116.333 35.8333,116.333 47.5,117C 50.9203,120.16 54.2536,120.16 57.5,117C 77.7434,117.026 97.9101,116.193 118,114.5C 120.929,114.525 123.429,115.191 125.5,116.5 Z"/></g>
<g><path style="opacity:1" fill="#d1a48c" d="M 387.5,128.5 C 394.574,135.238 400.908,142.571 406.5,150.5C 388.907,149.348 371.24,149.182 353.5,150C 351.382,150.26 349.716,151.26 348.5,153C 319.162,153.462 289.829,154.128 260.5,155C 257.819,157.848 254.486,159.515 250.5,160C 226.167,160.333 201.833,160.667 177.5,161C 173.468,161.461 172.801,162.961 175.5,165.5C 172.562,163.088 169.229,161.255 165.5,160C 155.505,159.324 145.505,158.824 135.5,158.5C 136.5,163.833 137.5,169.167 138.5,174.5C 126.814,174.168 115.148,174.501 103.5,175.5C 102.272,178.071 100.272,179.405 97.5,179.5C 103.531,166.466 111.198,154.466 120.5,143.5C 121.756,143.539 122.756,143.039 123.5,142C 154.828,141.081 186.161,140.414 217.5,140C 224.437,138.827 231.437,138.16 238.5,138C 239.328,137.085 240.328,136.419 241.5,136C 246.229,135.727 250.896,135.061 255.5,134C 286.514,133.84 317.514,133.173 348.5,132C 350.455,131.047 352.122,129.713 353.5,128C 364.867,127.233 376.2,127.399 387.5,128.5 Z"/></g>
<g><path style="opacity:1" fill="#d2a58c" d="M 511.5,127.5 C 511.5,136.167 511.5,144.833 511.5,153.5C 504.418,154.357 497.751,153.191 491.5,150C 469.833,149.333 448.167,149.333 426.5,150C 427.914,151.993 428.914,154.16 429.5,156.5C 423.089,147.36 416.422,138.36 409.5,129.5C 443.15,127.507 477.15,126.84 511.5,127.5 Z"/></g>
<g><path style="opacity:1" fill="#cfa690" d="M 101.5,143.5 C 100.974,145.23 99.9744,146.564 98.5,147.5C 80.9923,147.602 63.159,147.269 45,146.5C 39.3359,147.944 33.8359,149.777 28.5,152C 18.9309,153.871 9.2642,154.705 -0.5,154.5C -0.5,151.833 -0.5,149.167 -0.5,146.5C 1.80678,145.347 4.14011,144.18 6.5,143C 35.155,141.607 63.8216,141.273 92.5,142C 95.6946,142.181 98.6946,142.681 101.5,143.5 Z"/></g>
<g><path style="opacity:1" fill="#d2a58d" d="M 98.5,147.5 C 94.7495,154.671 90.7495,161.671 86.5,168.5C 82.6812,167.834 78.6812,167.501 74.5,167.5C 62.5,168 50.5,168.5 38.5,169C 37.6721,169.915 36.6721,170.581 35.5,171C 23.5115,171.833 11.5115,172.333 -0.5,172.5C -0.5,166.5 -0.5,160.5 -0.5,154.5C 9.2642,154.705 18.9309,153.871 28.5,152C 33.8359,149.777 39.3359,147.944 45,146.5C 63.159,147.269 80.9923,147.602 98.5,147.5 Z"/></g>
<g><path style="opacity:1" fill="#d6a388" d="M 406.5,150.5 C 410.61,154.951 413.944,159.951 416.5,165.5C 377.295,165.451 338.128,166.118 299,167.5C 260.5,166.87 222,166.703 183.5,167C 181.061,167.533 180.395,168.7 181.5,170.5C 178.911,169.581 176.911,167.914 175.5,165.5C 172.801,162.961 173.468,161.461 177.5,161C 201.833,160.667 226.167,160.333 250.5,160C 254.486,159.515 257.819,157.848 260.5,155C 289.829,154.128 319.162,153.462 348.5,153C 349.716,151.26 351.382,150.26 353.5,150C 371.24,149.182 388.907,149.348 406.5,150.5 Z"/></g>
<g><path style="opacity:1" fill="#d7a487" d="M 511.5,153.5 C 511.5,158.167 511.5,162.833 511.5,167.5C 486.255,166.135 460.922,165.468 435.5,165.5C 435.5,166.5 435.5,167.5 435.5,168.5C 433.54,164.58 431.54,160.58 429.5,156.5C 428.914,154.16 427.914,151.993 426.5,150C 448.167,149.333 469.833,149.333 491.5,150C 497.751,153.191 504.418,154.357 511.5,153.5 Z"/></g>
<g><path style="opacity:1" fill="#fefdfd" d="M 175.5,165.5 C 176.911,167.914 178.911,169.581 181.5,170.5C 186.563,176.196 192.229,181.196 198.5,185.5C 201.46,188.645 204.793,191.312 208.5,193.5C 219.678,204.175 231.345,214.341 243.5,224C 249.425,224.182 255.092,223.015 260.5,220.5C 257.573,217.879 254.907,215.046 252.5,212C 252.862,210.775 253.362,209.609 254,208.5C 256.38,205.076 259.213,202.076 262.5,199.5C 267.479,203.311 272.312,207.311 277,211.5C 277.494,213.134 277.66,214.801 277.5,216.5C 292.059,213.923 306.392,210.59 320.5,206.5C 327.869,205.963 334.869,204.297 341.5,201.5C 352.194,198.128 363.194,195.961 374.5,195C 376.37,197.04 378.37,198.873 380.5,200.5C 381.793,202.296 383.293,203.963 385,205.5C 385.483,206.448 385.649,207.448 385.5,208.5C 366.799,216.841 348.133,225.174 329.5,233.5C 322.43,235.869 315.763,239.036 309.5,243C 306.223,245.766 303.557,248.933 301.5,252.5C 297.067,256.103 293.067,260.269 289.5,265C 293.051,270.052 297.384,274.219 302.5,277.5C 306.847,281.845 311.514,285.845 316.5,289.5C 317.793,291.296 319.293,292.963 321,294.5C 322.806,302.477 327.64,307.811 335.5,310.5C 340.464,309.571 345.464,308.737 350.5,308C 351.416,307.722 352.082,307.222 352.5,306.5C 357.124,306.237 361.458,305.237 365.5,303.5C 367.402,302.489 369.402,302.322 371.5,303C 374.703,306.371 378.036,309.538 381.5,312.5C 381.489,314.017 380.823,315.184 379.5,316C 371.667,321.833 363.833,327.667 356,333.5C 355.932,335.995 356.432,338.328 357.5,340.5C 358.793,344.384 359.459,348.384 359.5,352.5C 353.151,351.824 346.817,351.324 340.5,351C 335.55,358.798 331.217,366.965 327.5,375.5C 326.34,378.133 324.34,378.966 321.5,378C 318.31,375.636 315.31,373.136 312.5,370.5C 312.716,358.977 313.383,347.477 314.5,336C 315.012,332.737 314.012,330.237 311.5,328.5C 309.063,326.567 306.729,324.4 304.5,322C 302.144,321.845 299.811,321.845 297.5,322C 293.957,318.951 290.291,316.118 286.5,313.5C 279.963,306.776 272.797,300.776 265,295.5C 263.739,295.759 262.739,296.426 262,297.5C 256.594,304.061 251.428,310.728 246.5,317.5C 244.652,321.702 242.986,326.035 241.5,330.5C 240.566,331.568 240.232,332.901 240.5,334.5C 238.926,336.102 238.259,338.102 238.5,340.5C 238.5,340.833 238.5,341.167 238.5,341.5C 236.32,344.381 235.32,347.714 235.5,351.5C 233.837,353.438 233.171,355.772 233.5,358.5C 231.69,361.145 230.69,364.145 230.5,367.5C 228.036,374.356 226.036,381.356 224.5,388.5C 223.153,391.663 221.986,394.996 221,398.5C 220.275,399.059 219.442,399.392 218.5,399.5C 213.652,397.091 209.652,393.758 206.5,389.5C 206.954,382.841 207.287,376.174 207.5,369.5C 207.5,368.167 207.5,366.833 207.5,365.5C 209.228,358.399 210.228,351.066 210.5,343.5C 210.5,339.5 210.5,335.5 210.5,331.5C 211.875,324.711 212.542,317.711 212.5,310.5C 213.543,304.35 214.21,298.016 214.5,291.5C 212.801,291.66 211.134,291.494 209.5,291C 205.136,287.492 200.803,283.992 196.5,280.5C 195.588,279.262 195.421,277.928 196,276.5C 199.048,272.408 202.548,268.742 206.5,265.5C 209.186,267.856 211.853,270.189 214.5,272.5C 214.56,273.043 214.893,273.376 215.5,273.5C 216.993,267.568 217.493,261.568 217,255.5C 212.293,251.288 207.46,247.288 202.5,243.5C 197.156,238.157 191.489,233.157 185.5,228.5C 179.465,222.463 173.131,216.796 166.5,211.5C 158.826,203.826 150.826,196.493 142.5,189.5C 142.671,183.986 141.337,178.986 138.5,174.5C 137.5,169.167 136.5,163.833 135.5,158.5C 145.505,158.824 155.505,159.324 165.5,160C 169.229,161.255 172.562,163.088 175.5,165.5 Z"/></g>
<g><path style="opacity:1" fill="#d8a185" d="M 416.5,165.5 C 418.588,167.336 419.921,169.669 420.5,172.5C 404.211,171.363 387.878,171.196 371.5,172C 370.377,173.044 369.044,173.71 367.5,174C 343.184,175.161 318.85,175.827 294.5,176C 293.167,176.667 291.833,177.333 290.5,178C 274.167,178.333 257.833,178.667 241.5,179C 237.833,180 234.167,181 230.5,182C 219.5,182.333 208.5,182.667 197.5,183C 198.252,183.671 198.586,184.504 198.5,185.5C 192.229,181.196 186.563,176.196 181.5,170.5C 180.395,168.7 181.061,167.533 183.5,167C 222,166.703 260.5,166.87 299,167.5C 338.128,166.118 377.295,165.451 416.5,165.5 Z"/></g>
<g><path style="opacity:1" fill="#d9a284" d="M 511.5,167.5 C 511.5,170.167 511.5,172.833 511.5,175.5C 503.826,175.334 496.159,175.5 488.5,176C 487.833,176.667 487.167,177.333 486.5,178C 483.167,178.333 479.833,178.667 476.5,179C 476.833,179.333 477.167,179.667 477.5,180C 465.492,180.5 453.492,180.333 441.5,179.5C 439.501,175.842 437.501,172.176 435.5,168.5C 435.5,167.5 435.5,166.5 435.5,165.5C 460.922,165.468 486.255,166.135 511.5,167.5 Z"/></g>
<g><path style="opacity:1" fill="#d6a489" d="M 86.5,168.5 C 83.3009,175.436 80.3009,182.436 77.5,189.5C 77.5,188.5 77.5,187.5 77.5,186.5C 68.8115,187.007 60.1448,187.84 51.5,189C 49.9328,190.076 48.2662,190.909 46.5,191.5C 44.0773,190.579 42.0773,189.079 40.5,187C 33.1312,186.383 25.7979,186.717 18.5,188C 17.5467,189.955 16.2134,191.622 14.5,193C 9.51108,193.499 4.51108,193.666 -0.5,193.5C -0.5,186.5 -0.5,179.5 -0.5,172.5C 11.5115,172.333 23.5115,171.833 35.5,171C 36.6721,170.581 37.6721,169.915 38.5,169C 50.5,168.5 62.5,168 74.5,167.5C 78.6812,167.501 82.6812,167.834 86.5,168.5 Z"/></g>
<g><path style="opacity:1" fill="#d9a082" d="M 420.5,172.5 C 422.008,174.181 423.008,176.181 423.5,178.5C 382.553,180.738 341.553,181.905 300.5,182C 298.5,183 296.5,184 294.5,185C 285.671,185.029 277.004,185.696 268.5,187C 277.5,187.333 286.5,187.667 295.5,188C 279.5,188.333 263.5,188.667 247.5,189C 246.328,189.419 245.328,190.085 244.5,191C 232.833,191.333 221.167,191.667 209.5,192C 208.944,192.383 208.611,192.883 208.5,193.5C 204.793,191.312 201.46,188.645 198.5,185.5C 198.586,184.504 198.252,183.671 197.5,183C 208.5,182.667 219.5,182.333 230.5,182C 234.167,181 237.833,180 241.5,179C 257.833,178.667 274.167,178.333 290.5,178C 291.833,177.333 293.167,176.667 294.5,176C 318.85,175.827 343.184,175.161 367.5,174C 369.044,173.71 370.377,173.044 371.5,172C 387.878,171.196 404.211,171.363 420.5,172.5 Z"/></g>
<g><path style="opacity:1" fill="#d8a287" d="M 138.5,174.5 C 141.337,178.986 142.671,183.986 142.5,189.5C 136.248,188.376 129.915,188.21 123.5,189C 122.328,189.419 121.328,190.085 120.5,191C 111.44,191.118 102.44,191.785 93.5,193C 103.167,193.333 112.833,193.667 122.5,194C 114.167,194.333 105.833,194.667 97.5,195C 94.6441,196.259 91.9774,197.759 89.5,199.5C 91.2676,192.383 93.9343,185.716 97.5,179.5C 100.272,179.405 102.272,178.071 103.5,175.5C 115.148,174.501 126.814,174.168 138.5,174.5 Z"/></g>
<g><path style="opacity:1" fill="#dca07f" d="M 511.5,175.5 C 511.5,183.167 511.5,190.833 511.5,198.5C 490.05,199.124 468.717,198.124 447.5,195.5C 444.98,190.443 442.98,185.109 441.5,179.5C 453.492,180.333 465.492,180.5 477.5,180C 477.167,179.667 476.833,179.333 476.5,179C 479.833,178.667 483.167,178.333 486.5,178C 487.167,177.333 487.833,176.667 488.5,176C 496.159,175.5 503.826,175.334 511.5,175.5 Z"/></g>
<g><path style="opacity:1" fill="#dc9e7e" d="M 423.5,178.5 C 429.491,188.748 433.824,199.748 436.5,211.5C 435.609,210.739 434.942,209.739 434.5,208.5C 431.893,207.682 429.226,207.182 426.5,207C 424.167,204.667 421.833,202.333 419.5,200C 406.327,199.173 393.327,199.34 380.5,200.5C 378.37,198.873 376.37,197.04 374.5,195C 363.194,195.961 352.194,198.128 341.5,201.5C 334.243,202.645 327.243,204.312 320.5,206.5C 306.392,210.59 292.059,213.923 277.5,216.5C 277.66,214.801 277.494,213.134 277,211.5C 272.312,207.311 267.479,203.311 262.5,199.5C 259.213,202.076 256.38,205.076 254,208.5C 253.362,209.609 252.862,210.775 252.5,212C 254.907,215.046 257.573,217.879 260.5,220.5C 255.092,223.015 249.425,224.182 243.5,224C 231.345,214.341 219.678,204.175 208.5,193.5C 208.611,192.883 208.944,192.383 209.5,192C 221.167,191.667 232.833,191.333 244.5,191C 245.328,190.085 246.328,189.419 247.5,189C 263.5,188.667 279.5,188.333 295.5,188C 286.5,187.667 277.5,187.333 268.5,187C 277.004,185.696 285.671,185.029 294.5,185C 296.5,184 298.5,183 300.5,182C 341.553,181.905 382.553,180.738 423.5,178.5 Z"/></g>
<g><path style="opacity:1" fill="#d9a184" d="M 77.5,189.5 C 77.6567,190.873 77.49,192.207 77,193.5C 75.2065,196.106 73.7065,198.773 72.5,201.5C 66.9908,203.987 61.1575,204.987 55,204.5C 51.1667,204.167 47.3333,203.833 43.5,203.5C 41.7118,200.093 38.8785,198.76 35,199.5C 30.7883,200.191 26.6216,201.191 22.5,202.5C 14.8576,201.642 7.19098,201.308 -0.5,201.5C -0.5,198.833 -0.5,196.167 -0.5,193.5C 4.51108,193.666 9.51108,193.499 14.5,193C 16.2134,191.622 17.5467,189.955 18.5,188C 25.7979,186.717 33.1312,186.383 40.5,187C 42.0773,189.079 44.0773,190.579 46.5,191.5C 48.2662,190.909 49.9328,190.076 51.5,189C 60.1448,187.84 68.8115,187.007 77.5,186.5C 77.5,187.5 77.5,188.5 77.5,189.5 Z"/></g>
<g><path style="opacity:1" fill="#de9c79" d="M 447.5,195.5 C 468.717,198.124 490.05,199.124 511.5,198.5C 511.5,204.833 511.5,211.167 511.5,217.5C 510.022,217.762 508.689,217.429 507.5,216.5C 507.709,215.914 508.043,215.414 508.5,215C 495.397,213.045 482.23,211.879 469,211.5C 463.124,211.505 457.624,212.171 452.5,213.5C 450.464,207.709 448.798,201.709 447.5,195.5 Z"/></g>
<g><path style="opacity:1" fill="#db9f80" d="M 142.5,189.5 C 150.826,196.493 158.826,203.826 166.5,211.5C 156.494,211.334 146.494,211.5 136.5,212C 135.167,212.667 133.833,213.333 132.5,214C 123.167,214.333 113.833,214.667 104.5,215C 103.167,215.667 101.833,216.333 100.5,217C 95.1771,217.499 89.8437,217.666 84.5,217.5C 85.8532,211.421 87.5199,205.421 89.5,199.5C 91.9774,197.759 94.6441,196.259 97.5,195C 105.833,194.667 114.167,194.333 122.5,194C 112.833,193.667 103.167,193.333 93.5,193C 102.44,191.785 111.44,191.118 120.5,191C 121.328,190.085 122.328,189.419 123.5,189C 129.915,188.21 136.248,188.376 142.5,189.5 Z"/></g>
<g><path style="opacity:1" fill="#dc9f7f" d="M 72.5,201.5 C 71.4717,209.424 69.805,217.091 67.5,224.5C 67.5,223.167 67.5,221.833 67.5,220.5C 44.8387,223.023 22.172,225.356 -0.5,227.5C -0.5,218.833 -0.5,210.167 -0.5,201.5C 7.19098,201.308 14.8576,201.642 22.5,202.5C 26.6216,201.191 30.7883,200.191 35,199.5C 38.8785,198.76 41.7118,200.093 43.5,203.5C 47.3333,203.833 51.1667,204.167 55,204.5C 61.1575,204.987 66.9908,203.987 72.5,201.5 Z"/></g>
<g><path style="opacity:1" fill="#f1d5c7" d="M 341.5,201.5 C 334.869,204.297 327.869,205.963 320.5,206.5C 327.243,204.312 334.243,202.645 341.5,201.5 Z"/></g>
<g><path style="opacity:1" fill="#de9a79" d="M 166.5,211.5 C 173.131,216.796 179.465,222.463 185.5,228.5C 176.214,227.387 166.881,227.22 157.5,228C 155.5,228.667 153.5,229.333 151.5,230C 142.167,230.333 132.833,230.667 123.5,231C 122.167,231.667 120.833,232.333 119.5,233C 112.167,233.333 104.833,233.667 97.5,234C 92.777,236.235 87.777,237.069 82.5,236.5C 82.7373,237.791 82.404,238.791 81.5,239.5C 81.7541,232.055 82.7541,224.722 84.5,217.5C 89.8437,217.666 95.1771,217.499 100.5,217C 101.833,216.333 103.167,215.667 104.5,215C 113.833,214.667 123.167,214.333 132.5,214C 133.833,213.333 135.167,212.667 136.5,212C 146.494,211.5 156.494,211.334 166.5,211.5 Z"/></g>
<g><path style="opacity:1" fill="#df9975" d="M 436.5,211.5 C 437.451,212.919 437.784,214.585 437.5,216.5C 437.42,219.781 438.087,222.781 439.5,225.5C 439.5,226.833 439.5,228.167 439.5,229.5C 418.906,228.346 398.24,228.179 377.5,229C 364.569,230.277 351.569,230.943 338.5,231C 343.167,231.333 347.833,231.667 352.5,232C 351.833,232.333 351.167,232.667 350.5,233C 343.508,233.5 336.508,233.666 329.5,233.5C 348.133,225.174 366.799,216.841 385.5,208.5C 385.649,207.448 385.483,206.448 385,205.5C 383.293,203.963 381.793,202.296 380.5,200.5C 393.327,199.34 406.327,199.173 419.5,200C 421.833,202.333 424.167,204.667 426.5,207C 429.226,207.182 431.893,207.682 434.5,208.5C 434.942,209.739 435.609,210.739 436.5,211.5 Z"/></g>
<g><path style="opacity:1" fill="#df9973" d="M 511.5,217.5 C 511.5,220.833 511.5,224.167 511.5,227.5C 505.158,227.334 498.825,227.5 492.5,228C 493.672,228.419 494.672,229.085 495.5,230C 482.518,229.731 469.518,229.564 456.5,229.5C 456.5,233.5 456.5,237.5 456.5,241.5C 455.092,232.312 453.759,222.978 452.5,213.5C 457.624,212.171 463.124,211.505 469,211.5C 482.23,211.879 495.397,213.045 508.5,215C 508.043,215.414 507.709,215.914 507.5,216.5C 508.689,217.429 510.022,217.762 511.5,217.5 Z"/></g>
<g><path style="opacity:1" fill="#eec8b5" d="M 437.5,216.5 C 438.913,219.219 439.58,222.219 439.5,225.5C 438.087,222.781 437.42,219.781 437.5,216.5 Z"/></g>
<g><path style="opacity:1" fill="#de9b78" d="M 67.5,224.5 C 67.2605,228.842 66.9272,233.176 66.5,237.5C 64.2198,238.64 61.8864,239.807 59.5,241C 49.016,240.944 38.6827,241.944 28.5,244C 23.8333,244.667 19.1667,244.667 14.5,244C 17.3509,242.119 17.0175,241.285 13.5,241.5C 11.5191,241.437 9.85241,242.104 8.5,243.5C 9.37598,244.251 10.376,244.751 11.5,245C 7.7924,247.132 3.7924,247.965 -0.5,247.5C -0.5,240.833 -0.5,234.167 -0.5,227.5C 22.172,225.356 44.8387,223.023 67.5,220.5C 67.5,221.833 67.5,223.167 67.5,224.5 Z"/></g>
<g><path style="opacity:1" fill="#df9673" d="M 185.5,228.5 C 191.489,233.157 197.156,238.157 202.5,243.5C 182.15,244.838 161.817,246.338 141.5,248C 122.186,250.554 102.853,252.887 83.5,255C 81.6112,258.836 80.9445,263.003 81.5,267.5C 80.2081,258.295 80.2081,248.962 81.5,239.5C 82.404,238.791 82.7373,237.791 82.5,236.5C 87.777,237.069 92.777,236.235 97.5,234C 104.833,233.667 112.167,233.333 119.5,233C 120.833,232.333 122.167,231.667 123.5,231C 132.833,230.667 142.167,230.333 151.5,230C 153.5,229.333 155.5,228.667 157.5,228C 166.881,227.22 176.214,227.387 185.5,228.5 Z"/></g>
<g><path style="opacity:1" fill="#df946f" d="M 439.5,229.5 C 439.43,233.425 440.097,237.091 441.5,240.5C 442.833,250.167 442.833,259.833 441.5,269.5C 441.656,261.471 441.323,253.471 440.5,245.5C 397.916,246.222 355.249,247.389 312.5,249C 308.607,249.747 304.94,250.914 301.5,252.5C 303.557,248.933 306.223,245.766 309.5,243C 315.763,239.036 322.43,235.869 329.5,233.5C 336.508,233.666 343.508,233.5 350.5,233C 351.167,232.667 351.833,232.333 352.5,232C 347.833,231.667 343.167,231.333 338.5,231C 351.569,230.943 364.569,230.277 377.5,229C 398.24,228.179 418.906,228.346 439.5,229.5 Z"/></g>
<g><path style="opacity:1" fill="#df946d" d="M 511.5,227.5 C 511.5,234.167 511.5,240.833 511.5,247.5C 495.83,247.667 480.163,247.5 464.5,247C 462.26,246.023 459.927,245.523 457.5,245.5C 457.821,250.695 457.487,255.695 456.5,260.5C 456.5,254.167 456.5,247.833 456.5,241.5C 456.5,237.5 456.5,233.5 456.5,229.5C 469.518,229.564 482.518,229.731 495.5,230C 494.672,229.085 493.672,228.419 492.5,228C 498.825,227.5 505.158,227.334 511.5,227.5 Z"/></g>
<g><path style="opacity:1" fill="#df9673" d="M 66.5,237.5 C 66.5,238.5 66.5,239.5 66.5,240.5C 65.5111,245.975 65.1778,251.642 65.5,257.5C 49.4327,259.335 33.4327,261.335 17.5,263.5C 14.5,263.333 11.5,263.167 8.5,263C 11.8068,261.805 11.9735,260.972 9,260.5C 6.04415,260.947 3.21081,261.78 0.5,263C 2.16667,263.333 3.83333,263.667 5.5,264C 3.41444,264.315 1.41444,264.815 -0.5,265.5C -0.5,259.5 -0.5,253.5 -0.5,247.5C 3.7924,247.965 7.7924,247.132 11.5,245C 10.376,244.751 9.37598,244.251 8.5,243.5C 9.85241,242.104 11.5191,241.437 13.5,241.5C 17.0175,241.285 17.3509,242.119 14.5,244C 19.1667,244.667 23.8333,244.667 28.5,244C 38.6827,241.944 49.016,240.944 59.5,241C 61.8864,239.807 64.2198,238.64 66.5,237.5 Z"/></g>
<g><path style="opacity:1" fill="#ebbda5" d="M 439.5,225.5 C 441.031,230.25 441.698,235.25 441.5,240.5C 440.097,237.091 439.43,233.425 439.5,229.5C 439.5,228.167 439.5,226.833 439.5,225.5 Z"/></g>
<g><path style="opacity:1" fill="#df926d" d="M 202.5,243.5 C 207.46,247.288 212.293,251.288 217,255.5C 217.493,261.568 216.993,267.568 215.5,273.5C 214.893,273.376 214.56,273.043 214.5,272.5C 215.65,267.684 215.816,262.684 215,257.5C 213.6,256.884 212.1,256.551 210.5,256.5C 198.832,257.281 187.165,258.114 175.5,259C 179.5,259.333 183.5,259.667 187.5,260C 165.997,260.266 144.663,261.6 123.5,264C 109.881,266.498 96.2146,268.332 82.5,269.5C 82.5,273.167 82.5,276.833 82.5,280.5C 81.5151,276.366 81.1818,272.032 81.5,267.5C 80.9445,263.003 81.6112,258.836 83.5,255C 102.853,252.887 122.186,250.554 141.5,248C 161.817,246.338 182.15,244.838 202.5,243.5 Z"/></g>
<g><path style="opacity:1" fill="#e08e67" d="M 441.5,269.5 C 441.167,269.5 440.833,269.5 440.5,269.5C 440.5,268.167 440.5,266.833 440.5,265.5C 397.813,265.334 355.146,266.167 312.5,268C 308.5,268.667 308.5,269.333 312.5,270C 308.462,271.95 304.128,273.117 299.5,273.5C 299.855,274.522 300.522,275.189 301.5,275.5C 301.833,276.167 302.167,276.833 302.5,277.5C 297.384,274.219 293.051,270.052 289.5,265C 293.067,260.269 297.067,256.103 301.5,252.5C 304.94,250.914 308.607,249.747 312.5,249C 355.249,247.389 397.916,246.222 440.5,245.5C 441.323,253.471 441.656,261.471 441.5,269.5 Z"/></g>
<g><path style="opacity:1" fill="#df916c" d="M 65.5,257.5 C 65.8333,262.833 66.1667,268.167 66.5,273.5C 62.2457,276.175 57.7457,277.175 53,276.5C 39.5246,278.073 26.0246,279.739 12.5,281.5C 11.914,281.291 11.414,280.957 11,280.5C 7.67269,283.154 3.83936,284.154 -0.5,283.5C -0.5,277.5 -0.5,271.5 -0.5,265.5C 1.41444,264.815 3.41444,264.315 5.5,264C 3.83333,263.667 2.16667,263.333 0.5,263C 3.21081,261.78 6.04415,260.947 9,260.5C 11.9735,260.972 11.8068,261.805 8.5,263C 11.5,263.167 14.5,263.333 17.5,263.5C 33.4327,261.335 49.4327,259.335 65.5,257.5 Z"/></g>
<g><path style="opacity:1" fill="#e08f66" d="M 511.5,247.5 C 511.5,254.167 511.5,260.833 511.5,267.5C 493.513,266.707 475.513,266.041 457.5,265.5C 457.768,267.099 457.434,268.432 456.5,269.5C 456.5,266.5 456.5,263.5 456.5,260.5C 457.487,255.695 457.821,250.695 457.5,245.5C 459.927,245.523 462.26,246.023 464.5,247C 480.163,247.5 495.83,247.667 511.5,247.5 Z"/></g>
<g><path style="opacity:1" fill="#e08d67" d="M 214.5,272.5 C 211.853,270.189 209.186,267.856 206.5,265.5C 202.548,268.742 199.048,272.408 196,276.5C 195.421,277.928 195.588,279.262 196.5,280.5C 182.829,280.333 169.163,280.5 155.5,281C 154.672,281.915 153.672,282.581 152.5,283C 134.115,284.187 115.782,285.52 97.5,287C 93.3822,289.126 89.3822,290.959 85.5,292.5C 84.0825,288.713 83.0825,284.713 82.5,280.5C 82.5,276.833 82.5,273.167 82.5,269.5C 96.2146,268.332 109.881,266.498 123.5,264C 144.663,261.6 165.997,260.266 187.5,260C 183.5,259.667 179.5,259.333 175.5,259C 187.165,258.114 198.832,257.281 210.5,256.5C 212.1,256.551 213.6,256.884 215,257.5C 215.816,262.684 215.65,267.684 214.5,272.5 Z"/></g>
<g><path style="opacity:1" fill="#f5dacd" d="M 66.5,240.5 C 66.8123,254.851 67.479,269.184 68.5,283.5C 67.4192,280.373 66.7526,277.04 66.5,273.5C 66.1667,268.167 65.8333,262.833 65.5,257.5C 65.1778,251.642 65.5111,245.975 66.5,240.5 Z"/></g>
<g><path style="opacity:1" fill="#e08a61" d="M 440.5,269.5 C 440.5,270.833 440.5,272.167 440.5,273.5C 410.578,273.072 380.744,273.738 351,275.5C 350.261,274.426 349.261,273.759 348,273.5C 332.36,274.145 316.86,274.811 301.5,275.5C 300.522,275.189 299.855,274.522 299.5,273.5C 304.128,273.117 308.462,271.95 312.5,270C 308.5,269.333 308.5,268.667 312.5,268C 355.146,266.167 397.813,265.334 440.5,265.5C 440.5,266.833 440.5,268.167 440.5,269.5 Z"/></g>
<g><path style="opacity:1" fill="#e18960" d="M 511.5,267.5 C 511.5,273.167 511.5,278.833 511.5,284.5C 507.511,285.722 503.511,285.556 499.5,284C 484.837,283.5 470.17,283.333 455.5,283.5C 455.737,284.791 455.404,285.791 454.5,286.5C 454.596,280.627 455.263,274.96 456.5,269.5C 457.434,268.432 457.768,267.099 457.5,265.5C 475.513,266.041 493.513,266.707 511.5,267.5 Z"/></g>
<g><path style="opacity:1" fill="#e08c67" d="M 66.5,273.5 C 66.7526,277.04 67.4192,280.373 68.5,283.5C 68.7038,286.518 69.0371,289.518 69.5,292.5C 68.8485,291.909 68.1818,291.243 67.5,290.5C 65.3334,291.792 63.0001,292.625 60.5,293C 55.1667,293.333 49.8333,293.667 44.5,294C 42.5,295 40.5,296 38.5,297C 25.5017,298.165 12.5017,299.332 -0.5,300.5C -0.5,294.833 -0.5,289.167 -0.5,283.5C 3.83936,284.154 7.67269,283.154 11,280.5C 11.414,280.957 11.914,281.291 12.5,281.5C 26.0246,279.739 39.5246,278.073 53,276.5C 57.7457,277.175 62.2457,276.175 66.5,273.5 Z"/></g>
<g><path style="opacity:1" fill="#e1865f" d="M 440.5,273.5 C 439.886,277.135 439.552,280.802 439.5,284.5C 439.5,285.167 439.5,285.833 439.5,286.5C 439.167,286.5 438.833,286.5 438.5,286.5C 401.832,286.333 365.165,286.5 328.5,287C 325.167,287.333 321.833,287.667 318.5,288C 317.584,288.278 316.918,288.778 316.5,289.5C 311.514,285.845 306.847,281.845 302.5,277.5C 302.167,276.833 301.833,276.167 301.5,275.5C 316.86,274.811 332.36,274.145 348,273.5C 349.261,273.759 350.261,274.426 351,275.5C 380.744,273.738 410.578,273.072 440.5,273.5 Z"/></g>
<g><path style="opacity:1" fill="#ecb49b" d="M 440.5,269.5 C 440.833,269.5 441.167,269.5 441.5,269.5C 441.698,274.75 441.031,279.75 439.5,284.5C 439.552,280.802 439.886,277.135 440.5,273.5C 440.5,272.167 440.5,270.833 440.5,269.5 Z"/></g>
<g><path style="opacity:1" fill="#e08661" d="M 196.5,280.5 C 200.803,283.992 205.136,287.492 209.5,291C 211.134,291.494 212.801,291.66 214.5,291.5C 214.21,298.016 213.543,304.35 212.5,310.5C 212.5,305.833 212.5,301.167 212.5,296.5C 209.813,296.664 207.146,296.497 204.5,296C 205.833,295.333 207.167,294.667 208.5,294C 202.631,291.144 196.631,290.811 190.5,293C 191.833,293.333 193.167,293.667 194.5,294C 192.212,294.822 189.878,295.489 187.5,296C 168.926,297.933 150.259,299.266 131.5,300C 129.392,300.36 127.392,301.027 125.5,302C 115.796,302.214 106.13,302.88 96.5,304C 94.2307,306.023 91.5641,306.856 88.5,306.5C 86.6791,302.03 85.6791,297.364 85.5,292.5C 89.3822,290.959 93.3822,289.126 97.5,287C 115.782,285.52 134.115,284.187 152.5,283C 153.672,282.581 154.672,281.915 155.5,281C 169.163,280.5 182.829,280.333 196.5,280.5 Z"/></g>
<g><path style="opacity:1" fill="#e1815a" d="M 438.5,286.5 C 437.833,290.5 437.167,294.5 436.5,298.5C 436.5,298.833 436.5,299.167 436.5,299.5C 434.96,301.838 434.294,304.505 434.5,307.5C 433.203,309.371 432.203,311.371 431.5,313.5C 415.008,312.503 398.342,312.17 381.5,312.5C 378.036,309.538 374.703,306.371 371.5,303C 369.402,302.322 367.402,302.489 365.5,303.5C 360.876,303.763 356.542,304.763 352.5,306.5C 346.493,306.882 340.827,308.216 335.5,310.5C 327.64,307.811 322.806,302.477 321,294.5C 319.293,292.963 317.793,291.296 316.5,289.5C 316.918,288.778 317.584,288.278 318.5,288C 321.833,287.667 325.167,287.333 328.5,287C 365.165,286.5 401.832,286.333 438.5,286.5 Z"/></g>
<g><path style="opacity:1" fill="#f0beaa" d="M 438.5,286.5 C 438.833,286.5 439.167,286.5 439.5,286.5C 439.416,290.837 438.416,294.837 436.5,298.5C 437.167,294.5 437.833,290.5 438.5,286.5 Z"/></g>
<g><path style="opacity:1" fill="#e08561" d="M 69.5,292.5 C 70.8806,300.024 72.8806,307.358 75.5,314.5C 75.5,314.833 75.5,315.167 75.5,315.5C 73.0279,315.367 70.3612,315.2 67.5,315C 68.5,314.667 69.5,314.333 70.5,314C 64.5,313.333 58.5,313.333 52.5,314C 50.7536,314.471 49.087,315.138 47.5,316C 51.1399,317.134 50.8065,318.134 46.5,319C 42.5,319.667 38.5,319.667 34.5,319C 37.7527,317.964 41.086,317.297 44.5,317C 38.5743,315.89 32.9077,316.556 27.5,319C 28.8333,319.333 30.1667,319.667 31.5,320C 25.9825,321.883 20.3158,322.55 14.5,322C 19.5735,320.339 19.5735,319.506 14.5,319.5C 10.043,319.826 5.70967,320.659 1.5,322C 2.5,322.333 3.5,322.667 4.5,323C 2.96982,324.12 1.30315,324.954 -0.5,325.5C -0.5,317.167 -0.5,308.833 -0.5,300.5C 12.5017,299.332 25.5017,298.165 38.5,297C 40.5,296 42.5,295 44.5,294C 49.8333,293.667 55.1667,293.333 60.5,293C 63.0001,292.625 65.3334,291.792 67.5,290.5C 68.1818,291.243 68.8485,291.909 69.5,292.5 Z"/></g>
<g><path style="opacity:1" fill="#e18158" d="M 511.5,284.5 C 511.5,294.833 511.5,305.167 511.5,315.5C 493.242,314.351 474.909,313.351 456.5,312.5C 453.415,312.544 450.415,312.878 447.5,313.5C 450.229,304.489 452.563,295.489 454.5,286.5C 455.404,285.791 455.737,284.791 455.5,283.5C 470.17,283.333 484.837,283.5 499.5,284C 503.511,285.556 507.511,285.722 511.5,284.5 Z"/></g>
<g><path style="opacity:1" fill="#e0805b" d="M 212.5,310.5 C 212.542,317.711 211.875,324.711 210.5,331.5C 210.5,326.5 210.5,321.5 210.5,316.5C 172.959,319.652 135.292,322.652 97.5,325.5C 97.5,326.833 97.5,328.167 97.5,329.5C 93.7099,322.236 90.7099,314.569 88.5,306.5C 91.5641,306.856 94.2307,306.023 96.5,304C 106.13,302.88 115.796,302.214 125.5,302C 127.392,301.027 129.392,300.36 131.5,300C 150.259,299.266 168.926,297.933 187.5,296C 189.878,295.489 192.212,294.822 194.5,294C 193.167,293.667 191.833,293.333 190.5,293C 196.631,290.811 202.631,291.144 208.5,294C 207.167,294.667 205.833,295.333 204.5,296C 207.146,296.497 209.813,296.664 212.5,296.5C 212.5,301.167 212.5,305.833 212.5,310.5 Z"/></g>
<g><path style="opacity:1" fill="#e2835e" d="M 286.5,313.5 C 276.976,313.739 267.476,313.406 258,312.5C 253.994,313.887 250.161,315.553 246.5,317.5C 251.428,310.728 256.594,304.061 262,297.5C 262.739,296.426 263.739,295.759 265,295.5C 272.797,300.776 279.963,306.776 286.5,313.5 Z"/></g>
<g><path style="opacity:1" fill="#f0bfaa" d="M 436.5,299.5 C 436.435,302.428 435.768,305.095 434.5,307.5C 434.294,304.505 434.96,301.838 436.5,299.5 Z"/></g>
<g><path style="opacity:1" fill="#f0bca8" d="M 365.5,303.5 C 361.458,305.237 357.124,306.237 352.5,306.5C 356.542,304.763 360.876,303.763 365.5,303.5 Z"/></g>
<g><path style="opacity:1" fill="#f2c4b2" d="M 352.5,306.5 C 352.082,307.222 351.416,307.722 350.5,308C 345.464,308.737 340.464,309.571 335.5,310.5C 340.827,308.216 346.493,306.882 352.5,306.5 Z"/></g>
<g><path style="opacity:1" fill="#e17953" d="M 511.5,315.5 C 511.5,319.833 511.5,324.167 511.5,328.5C 502.965,326.829 494.299,325.996 485.5,326C 471.425,325.186 457.425,325.352 443.5,326.5C 444.833,322.167 446.167,317.833 447.5,313.5C 450.415,312.878 453.415,312.544 456.5,312.5C 474.909,313.351 493.242,314.351 511.5,315.5 Z"/></g>
<g><path style="opacity:1" fill="#e17f5b" d="M 75.5,315.5 C 75.7366,318.647 76.5699,321.647 78,324.5C 78.3768,325.942 79.2101,326.942 80.5,327.5C 82.3843,330.603 83.7176,333.937 84.5,337.5C 82.8599,336.68 81.1932,335.847 79.5,335C 80.3081,334.692 80.9747,334.192 81.5,333.5C 80.8333,332.5 80.1667,331.5 79.5,330.5C 75.8333,330.167 72.1667,329.833 68.5,329.5C 45.3973,331.353 22.3973,334.019 -0.5,337.5C -0.5,333.5 -0.5,329.5 -0.5,325.5C 1.30315,324.954 2.96982,324.12 4.5,323C 3.5,322.667 2.5,322.333 1.5,322C 5.70967,320.659 10.043,319.826 14.5,319.5C 19.5735,319.506 19.5735,320.339 14.5,322C 20.3158,322.55 25.9825,321.883 31.5,320C 30.1667,319.667 28.8333,319.333 27.5,319C 32.9077,316.556 38.5743,315.89 44.5,317C 41.086,317.297 37.7527,317.964 34.5,319C 38.5,319.667 42.5,319.667 46.5,319C 50.8065,318.134 51.1399,317.134 47.5,316C 49.087,315.138 50.7536,314.471 52.5,314C 58.5,313.333 64.5,313.333 70.5,314C 69.5,314.333 68.5,314.667 67.5,315C 70.3612,315.2 73.0279,315.367 75.5,315.5 Z"/></g>
<g><path style="opacity:1" fill="#e17a57" d="M 286.5,313.5 C 290.291,316.118 293.957,318.951 297.5,322C 299.811,321.845 302.144,321.845 304.5,322C 306.729,324.4 309.063,326.567 311.5,328.5C 310.078,328.291 308.745,327.791 307.5,327C 285.196,325.576 263.196,326.742 241.5,330.5C 242.986,326.035 244.652,321.702 246.5,317.5C 250.161,315.553 253.994,313.887 258,312.5C 267.476,313.406 276.976,313.739 286.5,313.5 Z"/></g>
<g><path style="opacity:1" fill="#eba88f" d="M 75.5,314.5 C 77.4022,318.655 79.0689,322.989 80.5,327.5C 79.2101,326.942 78.3768,325.942 78,324.5C 76.5699,321.647 75.7366,318.647 75.5,315.5C 75.5,315.167 75.5,314.833 75.5,314.5 Z"/></g>
<g><path style="opacity:1" fill="#e17a57" d="M 210.5,331.5 C 210.5,335.5 210.5,339.5 210.5,343.5C 210.167,343.5 209.833,343.5 209.5,343.5C 209.5,339.833 209.5,336.167 209.5,332.5C 198.162,332.333 186.828,332.5 175.5,333C 162.286,334.886 148.953,335.886 135.5,336C 132.342,337.469 129.009,338.469 125.5,339C 118.508,339.5 111.508,339.666 104.5,339.5C 104.5,340.833 104.5,342.167 104.5,343.5C 102.197,338.894 99.8635,334.227 97.5,329.5C 97.5,328.167 97.5,326.833 97.5,325.5C 135.292,322.652 172.959,319.652 210.5,316.5C 210.5,321.5 210.5,326.5 210.5,331.5 Z"/></g>
<g><path style="opacity:1" fill="#e17753" d="M 381.5,312.5 C 398.342,312.17 415.008,312.503 431.5,313.5C 429.978,320.422 427.312,326.755 423.5,332.5C 420.913,331.184 417.913,330.517 414.5,330.5C 395.896,332.131 377.229,332.964 358.5,333C 357.565,335.381 357.232,337.881 357.5,340.5C 356.432,338.328 355.932,335.995 356,333.5C 363.833,327.667 371.667,321.833 379.5,316C 380.823,315.184 381.489,314.017 381.5,312.5 Z"/></g>
<g><path style="opacity:1" fill="#e17350" d="M 511.5,328.5 C 511.5,334.167 511.5,339.833 511.5,345.5C 486.106,345.494 460.773,344.494 435.5,342.5C 438.649,337.367 441.315,332.034 443.5,326.5C 457.425,325.352 471.425,325.186 485.5,326C 494.299,325.996 502.965,326.829 511.5,328.5 Z"/></g>
<g><path style="opacity:1" fill="#e17453" d="M 311.5,328.5 C 314.012,330.237 315.012,332.737 314.5,336C 313.383,347.477 312.716,358.977 312.5,370.5C 312.167,370.5 311.833,370.5 311.5,370.5C 311.538,361.154 311.871,351.82 312.5,342.5C 290.164,342.333 267.831,342.5 245.5,343C 243.26,343.977 240.927,344.477 238.5,344.5C 238.5,343.5 238.5,342.5 238.5,341.5C 238.5,341.167 238.5,340.833 238.5,340.5C 240.074,338.898 240.741,336.898 240.5,334.5C 240.232,332.901 240.566,331.568 241.5,330.5C 263.196,326.742 285.196,325.576 307.5,327C 308.745,327.791 310.078,328.291 311.5,328.5 Z"/></g>
<g><path style="opacity:1" fill="#e07957" d="M 84.5,337.5 C 86.341,339.849 87.6743,342.515 88.5,345.5C 87.0779,345.25 86.0779,344.417 85.5,343C 58.3248,344.475 31.3248,347.475 4.5,352C 3.34738,353.883 1.68072,354.716 -0.5,354.5C -0.5,348.833 -0.5,343.167 -0.5,337.5C 22.3973,334.019 45.3973,331.353 68.5,329.5C 72.1667,329.833 75.8333,330.167 79.5,330.5C 80.1667,331.5 80.8333,332.5 81.5,333.5C 80.9747,334.192 80.3081,334.692 79.5,335C 81.1932,335.847 82.8599,336.68 84.5,337.5 Z"/></g>
<g><path style="opacity:1" fill="#e07454" d="M 209.5,343.5 C 209.768,345.099 209.434,346.432 208.5,347.5C 208.53,346.503 208.03,345.836 207,345.5C 190.332,348.036 173.499,349.203 156.5,349C 155.833,349.333 155.167,349.667 154.5,350C 159.5,350.333 164.5,350.667 169.5,351C 153.335,351.819 137.335,353.485 121.5,356C 117.251,357.126 112.918,357.792 108.5,358C 106.189,358.236 104.189,359.069 102.5,360.5C 104.048,356.939 106.048,353.606 108.5,350.5C 107.139,348.15 105.806,345.816 104.5,343.5C 104.5,342.167 104.5,340.833 104.5,339.5C 111.508,339.666 118.508,339.5 125.5,339C 129.009,338.469 132.342,337.469 135.5,336C 148.953,335.886 162.286,334.886 175.5,333C 186.828,332.5 198.162,332.333 209.5,332.5C 209.5,336.167 209.5,339.833 209.5,343.5 Z"/></g>
<g><path style="opacity:1" fill="#eeab98" d="M 240.5,334.5 C 240.741,336.898 240.074,338.898 238.5,340.5C 238.259,338.102 238.926,336.102 240.5,334.5 Z"/></g>
<g><path style="opacity:1" fill="#e1714f" d="M 423.5,332.5 C 420.865,339.774 417.198,346.441 412.5,352.5C 408.974,350.558 404.974,349.391 400.5,349C 387.504,348.5 374.504,348.333 361.5,348.5C 361.771,350.38 361.104,351.713 359.5,352.5C 359.459,348.384 358.793,344.384 357.5,340.5C 357.232,337.881 357.565,335.381 358.5,333C 377.229,332.964 395.896,332.131 414.5,330.5C 417.913,330.517 420.913,331.184 423.5,332.5 Z"/></g>
<g><path style="opacity:1" fill="#eca490" d="M 238.5,341.5 C 238.5,342.5 238.5,343.5 238.5,344.5C 237.341,346.855 236.341,349.188 235.5,351.5C 235.32,347.714 236.32,344.381 238.5,341.5 Z"/></g>
<g><path style="opacity:1" fill="#df7354" d="M 88.5,345.5 C 86.5759,350.976 83.9092,355.976 80.5,360.5C 78.2568,359.188 75.5902,358.522 72.5,358.5C 48.2665,362.345 23.9332,365.678 -0.5,368.5C -0.5,363.833 -0.5,359.167 -0.5,354.5C 1.68072,354.716 3.34738,353.883 4.5,352C 31.3248,347.475 58.3248,344.475 85.5,343C 86.0779,344.417 87.0779,345.25 88.5,345.5 Z"/></g>
<g><path style="opacity:1" fill="#dd6c4f" d="M 208.5,347.5 C 207.926,353.484 207.593,359.484 207.5,365.5C 207.5,366.833 207.5,368.167 207.5,369.5C 206.596,370.209 206.263,371.209 206.5,372.5C 195.44,373.927 184.274,374.593 173,374.5C 166.5,374.333 160,374.167 153.5,374C 153.833,373.667 154.167,373.333 154.5,373C 151.406,372.348 148.406,372.682 145.5,374C 131.167,374.333 116.833,374.667 102.5,375C 98.6109,375.179 94.9443,376.012 91.5,377.5C 94.4223,371.314 98.089,365.648 102.5,360.5C 104.189,359.069 106.189,358.236 108.5,358C 112.918,357.792 117.251,357.126 121.5,356C 137.335,353.485 153.335,351.819 169.5,351C 164.5,350.667 159.5,350.333 154.5,350C 155.167,349.667 155.833,349.333 156.5,349C 173.499,349.203 190.332,348.036 207,345.5C 208.03,345.836 208.53,346.503 208.5,347.5 Z"/></g>
<g><path style="opacity:1" fill="#df6d4f" d="M 311.5,370.5 C 310.518,367.038 310.185,363.371 310.5,359.5C 296.827,359.758 283.16,360.258 269.5,361C 271.878,361.974 271.544,362.641 268.5,363C 256.468,363.192 244.468,363.858 232.5,365C 231.934,365.995 231.267,366.828 230.5,367.5C 230.69,364.145 231.69,361.145 233.5,358.5C 234.924,356.485 235.59,354.152 235.5,351.5C 236.341,349.188 237.341,346.855 238.5,344.5C 240.927,344.477 243.26,343.977 245.5,343C 267.831,342.5 290.164,342.333 312.5,342.5C 311.871,351.82 311.538,361.154 311.5,370.5 Z"/></g>
<g><path style="opacity:1" fill="#e06d4d" d="M 435.5,342.5 C 460.773,344.494 486.106,345.494 511.5,345.5C 511.5,350.833 511.5,356.167 511.5,361.5C 485.809,361.741 460.143,361.074 434.5,359.5C 431.415,359.544 428.415,359.878 425.5,360.5C 428.837,354.492 432.17,348.492 435.5,342.5 Z"/></g>
<g><path style="opacity:1" fill="#e99883" d="M 235.5,351.5 C 235.59,354.152 234.924,356.485 233.5,358.5C 233.171,355.772 233.837,353.438 235.5,351.5 Z"/></g>
<g><path style="opacity:1" fill="#f0b8a9" d="M 209.5,343.5 C 209.833,343.5 210.167,343.5 210.5,343.5C 210.228,351.066 209.228,358.399 207.5,365.5C 207.593,359.484 207.926,353.484 208.5,347.5C 209.434,346.432 209.768,345.099 209.5,343.5 Z"/></g>
<g><path style="opacity:1" fill="#db6e51" d="M 80.5,360.5 C 77.0708,367.032 73.4041,373.366 69.5,379.5C 61.8454,377.958 54.1788,378.458 46.5,381C 30.8235,382.002 15.1568,383.169 -0.5,384.5C -0.5,379.167 -0.5,373.833 -0.5,368.5C 23.9332,365.678 48.2665,362.345 72.5,358.5C 75.5902,358.522 78.2568,359.188 80.5,360.5 Z"/></g>
<g><path style="opacity:1" fill="#dd6b4d" d="M 412.5,352.5 C 408.636,359.701 403.636,366.034 397.5,371.5C 388.191,370.168 378.524,369.501 368.5,369.5C 358.833,369.667 349.167,369.833 339.5,370C 336.702,371.453 333.702,372.453 330.5,373C 329.922,374.417 328.922,375.25 327.5,375.5C 331.217,366.965 335.55,358.798 340.5,351C 346.817,351.324 353.151,351.824 359.5,352.5C 361.104,351.713 361.771,350.38 361.5,348.5C 374.504,348.333 387.504,348.5 400.5,349C 404.974,349.391 408.974,350.558 412.5,352.5 Z"/></g>
<g><path style="opacity:1" fill="#d7674c" d="M 206.5,372.5 C 205.866,378.145 205.532,383.811 205.5,389.5C 192.575,388.354 179.575,388.187 166.5,389C 163.559,390.01 160.726,390.177 158,389.5C 154.428,390.666 150.928,391.666 147.5,392.5C 136.751,392.78 126.084,393.78 115.5,395.5C 109.933,395.899 104.599,396.899 99.5,398.5C 92.126,398.775 84.7926,399.442 77.5,400.5C 77.3505,399.448 77.5172,398.448 78,397.5C 82.7545,390.929 87.2545,384.262 91.5,377.5C 94.9443,376.012 98.6109,375.179 102.5,375C 116.833,374.667 131.167,374.333 145.5,374C 148.406,372.682 151.406,372.348 154.5,373C 154.167,373.333 153.833,373.667 153.5,374C 160,374.167 166.5,374.333 173,374.5C 184.274,374.593 195.44,373.927 206.5,372.5 Z"/></g>
<g><path style="opacity:1" fill="#d9664b" d="M 311.5,370.5 C 311.833,370.5 312.167,370.5 312.5,370.5C 315.31,373.136 318.31,375.636 321.5,378C 324.34,378.966 326.34,378.133 327.5,375.5C 328.922,375.25 329.922,374.417 330.5,373C 333.702,372.453 336.702,371.453 339.5,370C 349.167,369.833 358.833,369.667 368.5,369.5C 378.524,369.501 388.191,370.168 397.5,371.5C 395.883,374.784 393.55,377.451 390.5,379.5C 366.498,379.333 342.498,379.5 318.5,380C 314.815,380.914 315.148,381.581 319.5,382C 318.167,382.333 316.833,382.667 315.5,383C 285.494,383.952 255.494,384.785 225.5,385.5C 225.737,386.791 225.404,387.791 224.5,388.5C 226.036,381.356 228.036,374.356 230.5,367.5C 231.267,366.828 231.934,365.995 232.5,365C 244.468,363.858 256.468,363.192 268.5,363C 271.544,362.641 271.878,361.974 269.5,361C 283.16,360.258 296.827,359.758 310.5,359.5C 310.185,363.371 310.518,367.038 311.5,370.5 Z"/></g>
<g><path style="opacity:1" fill="#da664a" d="M 511.5,361.5 C 511.5,367.5 511.5,373.5 511.5,379.5C 494.83,379.333 478.163,379.5 461.5,380C 469.5,380.333 477.5,380.667 485.5,381C 476.833,381.333 468.167,381.667 459.5,382C 468.759,383.251 478.092,383.918 487.5,384C 465.1,384.823 442.767,384.156 420.5,382C 424.852,381.581 425.185,380.914 421.5,380C 418.183,379.502 414.85,379.335 411.5,379.5C 416.198,373.143 420.865,366.81 425.5,360.5C 428.415,359.878 431.415,359.544 434.5,359.5C 460.143,361.074 485.809,361.741 511.5,361.5 Z"/></g>
<g><path style="opacity:1" fill="#d6684e" d="M 69.5,379.5 C 67.0843,384.667 64.4176,389.667 61.5,394.5C 59.7078,393.691 57.7078,393.191 55.5,393C 56.5,392.667 57.5,392.333 58.5,392C 51.8333,391.833 45.1667,391.667 38.5,391.5C 25.4008,391.484 12.4008,392.151 -0.5,393.5C -0.5,390.5 -0.5,387.5 -0.5,384.5C 15.1568,383.169 30.8235,382.002 46.5,381C 54.1788,378.458 61.8454,377.958 69.5,379.5 Z"/></g>
<g><path style="opacity:1" fill="#ecb1a3" d="M 207.5,369.5 C 207.287,376.174 206.954,382.841 206.5,389.5C 206.167,389.5 205.833,389.5 205.5,389.5C 205.532,383.811 205.866,378.145 206.5,372.5C 206.263,371.209 206.596,370.209 207.5,369.5 Z"/></g>
<g><path style="opacity:1" fill="#d26048" d="M 390.5,379.5 C 381.99,388.682 372.323,396.349 361.5,402.5C 328.647,402.816 295.813,402.149 263,400.5C 254.774,400.399 246.608,400.899 238.5,402C 244.833,402.333 251.167,402.667 257.5,403C 257.167,403.333 256.833,403.667 256.5,404C 233.955,404.895 211.455,404.395 189,402.5C 180.92,401.717 173.42,403.05 166.5,406.5C 159.599,402.598 153.266,397.931 147.5,392.5C 150.928,391.666 154.428,390.666 158,389.5C 160.726,390.177 163.559,390.01 166.5,389C 179.575,388.187 192.575,388.354 205.5,389.5C 205.833,389.5 206.167,389.5 206.5,389.5C 209.652,393.758 213.652,397.091 218.5,399.5C 219.442,399.392 220.275,399.059 221,398.5C 221.986,394.996 223.153,391.663 224.5,388.5C 225.404,387.791 225.737,386.791 225.5,385.5C 255.494,384.785 285.494,383.952 315.5,383C 316.833,382.667 318.167,382.333 319.5,382C 315.148,381.581 314.815,380.914 318.5,380C 342.498,379.5 366.498,379.333 390.5,379.5 Z"/></g>
<g><path style="opacity:1" fill="#d36047" d="M 411.5,379.5 C 414.85,379.335 418.183,379.502 421.5,380C 425.185,380.914 424.852,381.581 420.5,382C 442.767,384.156 465.1,384.823 487.5,384C 478.092,383.918 468.759,383.251 459.5,382C 468.167,381.667 476.833,381.333 485.5,381C 477.5,380.667 469.5,380.333 461.5,380C 478.163,379.5 494.83,379.333 511.5,379.5C 511.5,387.167 511.5,394.833 511.5,402.5C 509.436,402.313 507.436,401.813 505.5,401C 505.833,400.667 506.167,400.333 506.5,400C 468.508,400.331 430.508,400.498 392.5,400.5C 394.167,398.5 395.833,396.5 397.5,394.5C 401.935,389.309 406.601,384.309 411.5,379.5 Z"/></g>
<g><path style="opacity:1" fill="#dc8370" d="M 397.5,394.5 C 395.833,396.5 394.167,398.5 392.5,400.5C 391.609,401.11 390.609,401.443 389.5,401.5C 391.569,398.427 394.236,396.094 397.5,394.5 Z"/></g>
<g><path style="opacity:1" fill="#d1644c" d="M 61.5,394.5 C 58.0349,399.74 56.0349,405.407 55.5,411.5C 53.6921,410.082 53.0254,408.082 53.5,405.5C 39.991,404.886 26.6576,406.053 13.5,409C 8.8452,409.499 4.17853,409.666 -0.5,409.5C -0.5,404.167 -0.5,398.833 -0.5,393.5C 12.4008,392.151 25.4008,391.484 38.5,391.5C 45.1667,391.667 51.8333,391.833 58.5,392C 57.5,392.333 56.5,392.667 55.5,393C 57.7078,393.191 59.7078,393.691 61.5,394.5 Z"/></g>
<g><path style="opacity:1" fill="#f3d0c9" d="M 115.5,395.5 C 110.514,397.701 105.18,398.701 99.5,398.5C 104.599,396.899 109.933,395.899 115.5,395.5 Z"/></g>
<g><path style="opacity:1" fill="#cb5b47" d="M 361.5,402.5 C 354.62,408.11 346.954,412.443 338.5,415.5C 320.047,414.485 301.547,414.818 283,416.5C 277.44,416.387 277.273,415.887 282.5,415C 272.167,414.271 262,415.104 252,417.5C 229.833,416.574 207.666,416.24 185.5,416.5C 181.849,415.341 178.515,413.674 175.5,411.5C 173.434,409.801 171.1,408.468 168.5,407.5C 167.508,407.672 166.842,407.338 166.5,406.5C 173.42,403.05 180.92,401.717 189,402.5C 211.455,404.395 233.955,404.895 256.5,404C 256.833,403.667 257.167,403.333 257.5,403C 251.167,402.667 244.833,402.333 238.5,402C 246.608,400.899 254.774,400.399 263,400.5C 295.813,402.149 328.647,402.816 361.5,402.5 Z"/></g>
<g><path style="opacity:1" fill="#cb5b46" d="M 511.5,402.5 C 511.5,407.167 511.5,411.833 511.5,416.5C 465.883,414.923 420.216,414.089 374.5,414C 375.056,413.617 375.389,413.117 375.5,412.5C 379.765,408.362 384.431,404.695 389.5,401.5C 390.609,401.443 391.609,401.11 392.5,400.5C 430.508,400.498 468.508,400.331 506.5,400C 506.167,400.333 505.833,400.667 505.5,401C 507.436,401.813 509.436,402.313 511.5,402.5 Z"/></g>
<g><path style="opacity:1" fill="#ca5e49" d="M 55.5,411.5 C 57.1441,415.986 60.3107,418.32 65,418.5C 74.4324,416.915 83.9324,415.915 93.5,415.5C 100.711,415.542 107.711,414.875 114.5,413.5C 117.833,413.167 121.167,412.833 124.5,412.5C 130.43,412.872 136.097,412.205 141.5,410.5C 142.873,410.343 144.207,410.51 145.5,411C 148.423,413.446 151.423,415.613 154.5,417.5C 142.285,418.082 129.951,418.916 117.5,420C 78.123,420.478 38.7897,421.312 -0.5,422.5C -0.5,418.167 -0.5,413.833 -0.5,409.5C 4.17853,409.666 8.8452,409.499 13.5,409C 26.6576,406.053 39.991,404.886 53.5,405.5C 53.0254,408.082 53.6921,410.082 55.5,411.5 Z"/></g>
<g><path style="opacity:1" fill="#dd9081" d="M 168.5,407.5 C 171.1,408.468 173.434,409.801 175.5,411.5C 172.454,411.275 170.121,409.942 168.5,407.5 Z"/></g>
<g><path style="opacity:1" fill="#d78171" d="M 141.5,410.5 C 136.097,412.205 130.43,412.872 124.5,412.5C 129.973,411.383 135.64,410.717 141.5,410.5 Z"/></g>
<g><path style="opacity:1" fill="#d78172" d="M 114.5,413.5 C 107.711,414.875 100.711,415.542 93.5,415.5C 100.289,414.125 107.289,413.458 114.5,413.5 Z"/></g>
<g><path style="opacity:1" fill="#c45746" d="M 338.5,415.5 C 328.315,420.584 317.648,424.584 306.5,427.5C 303.572,427.565 300.905,428.232 298.5,429.5C 294.267,429.539 290.267,430.205 286.5,431.5C 271.851,432.351 257.184,432.685 242.5,432.5C 230.751,430.45 219.085,427.95 207.5,425C 199.792,422.825 192.459,419.992 185.5,416.5C 207.666,416.24 229.833,416.574 252,417.5C 262,415.104 272.167,414.271 282.5,415C 277.273,415.887 277.44,416.387 283,416.5C 301.547,414.818 320.047,414.485 338.5,415.5 Z"/></g>
<g><path style="opacity:1" fill="#c55645" d="M 375.5,412.5 C 375.389,413.117 375.056,413.617 374.5,414C 420.216,414.089 465.883,414.923 511.5,416.5C 511.5,419.833 511.5,423.167 511.5,426.5C 504.759,426.829 498.092,426.329 491.5,425C 447.167,424.667 402.833,424.333 358.5,424C 359.056,423.617 359.389,423.117 359.5,422.5C 364.825,419.17 370.159,415.836 375.5,412.5 Z"/></g>
<g><path style="opacity:1" fill="#c45947" d="M 154.5,417.5 C 159.833,420.5 165.167,423.5 170.5,426.5C 136.976,428.068 103.143,429.734 69,431.5C 45.9556,432.269 22.789,432.269 -0.5,431.5C -0.5,428.5 -0.5,425.5 -0.5,422.5C 38.7897,421.312 78.123,420.478 117.5,420C 129.951,418.916 142.285,418.082 154.5,417.5 Z"/></g>
<g><path style="opacity:1" fill="#be5647" d="M 170.5,426.5 C 175.748,428.557 180.748,431.057 185.5,434C 188.52,434.901 191.52,435.734 194.5,436.5C 195.635,438.213 197.302,438.88 199.5,438.5C 199.5,438.833 199.5,439.167 199.5,439.5C 181.786,439.82 164.12,439.486 146.5,438.5C 144.465,440.294 142.298,440.627 140,439.5C 93.1819,440.627 46.3486,441.96 -0.5,443.5C -0.5,439.5 -0.5,435.5 -0.5,431.5C 22.789,432.269 45.9556,432.269 69,431.5C 103.143,429.734 136.976,428.068 170.5,426.5 Z"/></g>
<g><path style="opacity:1" fill="#e7bdb7" d="M 306.5,427.5 C 304.162,429.04 301.495,429.706 298.5,429.5C 300.905,428.232 303.572,427.565 306.5,427.5 Z"/></g>
<g><path style="opacity:1" fill="#be5444" d="M 359.5,422.5 C 359.389,423.117 359.056,423.617 358.5,424C 402.833,424.333 447.167,424.667 491.5,425C 498.092,426.329 504.759,426.829 511.5,426.5C 511.5,429.833 511.5,433.167 511.5,436.5C 454.879,433.986 398.212,432.819 341.5,433C 342.756,432.583 343.423,431.75 343.5,430.5C 348.795,427.853 354.128,425.186 359.5,422.5 Z"/></g>
<g><path style="opacity:1" fill="#e3b4ad" d="M 286.5,431.5 C 278.225,433.042 269.725,433.709 261,433.5C 254.657,433.5 248.491,433.166 242.5,432.5C 257.184,432.685 271.851,432.351 286.5,431.5 Z"/></g>
<g><path style="opacity:1" fill="#b95144" d="M 343.5,430.5 C 343.423,431.75 342.756,432.583 341.5,433C 398.212,432.819 454.879,433.986 511.5,436.5C 511.5,439.167 511.5,441.833 511.5,444.5C 445.171,443.758 378.838,443.258 312.5,443C 313.056,442.617 313.389,442.117 313.5,441.5C 315.5,440.833 317.5,440.167 319.5,439.5C 322.839,439.11 326.173,438.61 329.5,438C 330.381,437.292 331.047,436.458 331.5,435.5C 335.261,433.462 339.261,431.796 343.5,430.5 Z"/></g>
<g><path style="opacity:1" fill="#dba29a" d="M 194.5,436.5 C 196.403,436.796 198.07,437.463 199.5,438.5C 197.302,438.88 195.635,438.213 194.5,436.5 Z"/></g>
<g><path style="opacity:1" fill="#cc7b70" d="M 331.5,435.5 C 331.047,436.458 330.381,437.292 329.5,438C 326.173,438.61 322.839,439.11 319.5,439.5C 323.455,438.167 327.455,436.834 331.5,435.5 Z"/></g>
<g><path style="opacity:1" fill="#b85245" d="M 199.5,439.5 C 200.833,439.5 202.167,439.5 203.5,439.5C 205.102,441.074 207.102,441.741 209.5,441.5C 211.515,442.924 213.848,443.59 216.5,443.5C 220.774,444.777 225.108,445.777 229.5,446.5C 152.992,447.539 76.3252,449.539 -0.5,452.5C -0.5,449.5 -0.5,446.5 -0.5,443.5C 46.3486,441.96 93.1819,440.627 140,439.5C 142.298,440.627 144.465,440.294 146.5,438.5C 164.12,439.486 181.786,439.82 199.5,439.5 Z"/></g>
<g><path style="opacity:1" fill="#e6beba" d="M 203.5,439.5 C 205.898,439.259 207.898,439.926 209.5,441.5C 207.102,441.741 205.102,441.074 203.5,439.5 Z"/></g>
<g><path style="opacity:1" fill="#e0b3ae" d="M 209.5,441.5 C 212.152,441.41 214.485,442.076 216.5,443.5C 213.848,443.59 211.515,442.924 209.5,441.5 Z"/></g>
<g><path style="opacity:1" fill="#b24f45" d="M 313.5,441.5 C 313.389,442.117 313.056,442.617 312.5,443C 378.838,443.258 445.171,443.758 511.5,444.5C 511.5,447.833 511.5,451.167 511.5,454.5C 491.691,452.94 471.857,452.274 452,452.5C 407.862,453.326 363.696,453.826 319.5,454C 314.38,454.954 309.213,455.454 304,455.5C 279.129,454.009 254.296,454.342 229.5,456.5C 221.328,456.289 213.162,455.955 205,455.5C 200.432,455.477 195.932,455.977 191.5,457C 127.487,458.767 63.4871,460.6 -0.5,462.5C -0.5,459.167 -0.5,455.833 -0.5,452.5C 76.3252,449.539 152.992,447.539 229.5,446.5C 231.833,446.5 234.167,446.5 236.5,446.5C 244.278,448.001 252.278,448.668 260.5,448.5C 268.722,448.668 276.722,448.001 284.5,446.5C 294.394,445.987 304.061,444.32 313.5,441.5 Z"/></g>
<g><path style="opacity:1" fill="#f0dbd9" d="M 236.5,446.5 C 252.5,447.833 268.5,447.833 284.5,446.5C 276.722,448.001 268.722,448.668 260.5,448.5C 252.278,448.668 244.278,448.001 236.5,446.5 Z"/></g>
<g><path style="opacity:1" fill="#ab4c43" d="M 511.5,454.5 C 511.5,457.167 511.5,459.833 511.5,462.5C 501.859,461.774 492.192,461.274 482.5,461C 422.441,460.721 362.441,460.221 302.5,459.5C 294.51,460.329 286.51,461.163 278.5,462C 257.5,462.333 236.5,462.667 215.5,463C 210.084,463.159 204.75,463.826 199.5,465C 177.471,465.092 155.471,465.759 133.5,467C 118.986,467.756 104.486,467.589 90,466.5C 70.3938,468.802 50.7271,469.135 31,467.5C 28.8333,467.667 26.6667,467.833 24.5,468C 27.5,468.333 30.5,468.667 33.5,469C 22.0122,469.365 10.6788,470.199 -0.5,471.5C -0.5,468.5 -0.5,465.5 -0.5,462.5C 63.4871,460.6 127.487,458.767 191.5,457C 195.932,455.977 200.432,455.477 205,455.5C 213.162,455.955 221.328,456.289 229.5,456.5C 254.296,454.342 279.129,454.009 304,455.5C 309.213,455.454 314.38,454.954 319.5,454C 363.696,453.826 407.862,453.326 452,452.5C 471.857,452.274 491.691,452.94 511.5,454.5 Z"/></g>
<g><path style="opacity:1" fill="#a54a43" d="M 511.5,462.5 C 511.5,465.167 511.5,467.833 511.5,470.5C 510.711,470.217 510.044,469.717 509.5,469C 463.838,467.794 418.171,467.461 372.5,468C 248.143,471.276 123.81,474.776 -0.5,478.5C -0.5,476.167 -0.5,473.833 -0.5,471.5C 10.6788,470.199 22.0122,469.365 33.5,469C 30.5,468.667 27.5,468.333 24.5,468C 26.6667,467.833 28.8333,467.667 31,467.5C 50.7271,469.135 70.3938,468.802 90,466.5C 104.486,467.589 118.986,467.756 133.5,467C 155.471,465.759 177.471,465.092 199.5,465C 204.75,463.826 210.084,463.159 215.5,463C 236.5,462.667 257.5,462.333 278.5,462C 286.51,461.163 294.51,460.329 302.5,459.5C 362.441,460.221 422.441,460.721 482.5,461C 492.192,461.274 501.859,461.774 511.5,462.5 Z"/></g>
<g><path style="opacity:1" fill="#9f4843" d="M 511.5,470.5 C 511.5,472.833 511.5,475.167 511.5,477.5C 451.513,475.65 391.513,475.15 331.5,476C 278.382,478.651 225.215,480.484 172,481.5C 168.651,481.319 165.317,480.986 162,480.5C 156.406,481.656 150.739,482.322 145,482.5C 110.449,481.574 75.9494,482.241 41.5,484.5C 27.4872,483.368 13.4872,483.368 -0.5,484.5C -0.5,482.5 -0.5,480.5 -0.5,478.5C 123.81,474.776 248.143,471.276 372.5,468C 418.171,467.461 463.838,467.794 509.5,469C 510.044,469.717 510.711,470.217 511.5,470.5 Z"/></g>
<g><path style="opacity:1" fill="#984643" d="M 511.5,477.5 C 511.5,480.167 511.5,482.833 511.5,485.5C 497.821,485.329 484.154,485.662 470.5,486.5C 436.201,484.446 401.867,483.946 367.5,485C 283.988,486.698 200.488,488.865 117,491.5C 108.827,491.306 100.661,490.973 92.5,490.5C 61.5044,491.362 30.5044,492.029 -0.5,492.5C -0.5,489.833 -0.5,487.167 -0.5,484.5C 13.4872,483.368 27.4872,483.368 41.5,484.5C 75.9494,482.241 110.449,481.574 145,482.5C 150.739,482.322 156.406,481.656 162,480.5C 165.317,480.986 168.651,481.319 172,481.5C 225.215,480.484 278.382,478.651 331.5,476C 391.513,475.15 451.513,475.65 511.5,477.5 Z"/></g>
<g><path style="opacity:1" fill="#924443" d="M 511.5,485.5 C 511.5,487.167 511.5,488.833 511.5,490.5C 451.166,490.333 390.832,490.5 330.5,491C 257.481,493.482 184.481,495.816 111.5,498C 74.17,498.81 36.8367,499.31 -0.5,499.5C -0.5,497.167 -0.5,494.833 -0.5,492.5C 30.5044,492.029 61.5044,491.362 92.5,490.5C 100.661,490.973 108.827,491.306 117,491.5C 200.488,488.865 283.988,486.698 367.5,485C 401.867,483.946 436.201,484.446 470.5,486.5C 484.154,485.662 497.821,485.329 511.5,485.5 Z"/></g>
<g><path style="opacity:1" fill="#8c4242" d="M 511.5,490.5 C 511.5,492.833 511.5,495.167 511.5,497.5C 442.014,496.354 372.514,496.354 303,497.5C 300.865,498.127 298.698,498.627 296.5,499C 252.27,499.931 208.104,501.431 164,503.5C 153.125,502.379 142.292,502.546 131.5,504C 87.4833,504.706 43.4833,505.873 -0.5,507.5C -0.5,504.833 -0.5,502.167 -0.5,499.5C 36.8367,499.31 74.17,498.81 111.5,498C 184.481,495.816 257.481,493.482 330.5,491C 390.832,490.5 451.166,490.333 511.5,490.5 Z"/></g>
<g><path style="opacity:1" fill="#864142" d="M 511.5,497.5 C 511.5,500.167 511.5,502.833 511.5,505.5C 394.518,503.65 277.851,505.65 161.5,511.5C 107.5,511.5 53.5,511.5 -0.5,511.5C -0.5,510.167 -0.5,508.833 -0.5,507.5C 43.4833,505.873 87.4833,504.706 131.5,504C 142.292,502.546 153.125,502.379 164,503.5C 208.104,501.431 252.27,499.931 296.5,499C 298.698,498.627 300.865,498.127 303,497.5C 372.514,496.354 442.014,496.354 511.5,497.5 Z"/></g>
<g><path style="opacity:1" fill="#803f42" d="M 511.5,505.5 C 511.5,507.5 511.5,509.5 511.5,511.5C 394.833,511.5 278.167,511.5 161.5,511.5C 277.851,505.65 394.518,503.65 511.5,505.5 Z"/></g>
</svg>
